<svg width="32" height="32" viewBox="0 0 32 32" fill="none" xmlns="http://www.w3.org/2000/svg">
<g clip-path="url(#clip0_54_9)">
<path d="M9.26006 15.8822C8.78155 15.9791 8.31502 15.6699 8.21803 15.1913C8.15527 14.8817 8.26265 14.577 8.47591 14.3743L10.3326 11.5737C10.6024 11.1668 11.151 11.0556 11.5579 11.3254C11.9648 11.5952 12.076 12.1438 11.8062 12.5507L11.0317 13.7191L17.5732 12.3933C18.0516 12.2963 18.5182 12.6056 18.6152 13.0841C18.7122 13.5627 18.4028 14.0292 17.9244 14.1262L9.3029 15.8735C9.29502 15.8752 9.28712 15.8768 9.2792 15.8783L9.26006 15.8822Z" fill="#FF9960"/>
<path d="M21.7486 15.1265C22.2271 15.0295 22.6936 15.3388 22.7906 15.8173C22.8533 16.1269 22.746 16.4316 22.5328 16.6343L20.6761 19.4348C20.4063 19.8418 19.8577 19.953 19.4507 19.6832C19.0438 19.4134 18.9326 18.8648 19.2024 18.4579L19.977 17.2895L13.4355 18.6153C12.957 18.7123 12.4905 18.403 12.3935 17.9245C12.2965 17.4459 12.6058 16.9794 13.0843 16.8824L21.7058 15.1351C21.7136 15.1334 21.7215 15.1318 21.7295 15.1303L21.7486 15.1265Z" fill="#60B2FF"/>
<path d="M2.24743 11.2927L0.948362 4.13698L4.03708 3.57624C4.56817 3.47983 5.05191 3.50029 5.48829 3.63762C5.92466 3.77495 6.28796 4.01337 6.57818 4.35288C6.86839 4.69239 7.0596 5.11604 7.15178 5.62384C7.24481 6.1363 7.21123 6.60076 7.05104 7.01723C6.89318 7.43327 6.62766 7.77984 6.25448 8.05691C5.88363 8.33357 5.42568 8.52138 4.88061 8.62033L3.03576 8.95524L2.76174 7.44583L4.21526 7.18195C4.44353 7.14051 4.63084 7.0656 4.77719 6.95723C4.92545 6.8461 5.02913 6.70817 5.08826 6.54345C5.14971 6.3783 5.16204 6.1944 5.12525 5.99174C5.08803 5.78676 5.01206 5.62009 4.89733 5.49174C4.7845 5.36064 4.63958 5.27146 4.46257 5.22419C4.28747 5.17417 4.08578 5.16988 3.8575 5.21132L3.17267 5.33565L4.19011 10.9401L2.24743 11.2927ZM8.73234 10.1155L7.75804 4.74864L9.68674 4.3985L10.661 9.76532L8.73234 10.1155ZM8.6209 4.01452C8.36002 4.06188 8.12075 4.01629 7.90311 3.87775C7.68547 3.73921 7.55466 3.54881 7.51068 3.30656C7.4667 3.06431 7.52224 2.84008 7.6773 2.63388C7.83235 2.42768 8.04032 2.30089 8.30121 2.25353C8.56443 2.20575 8.80369 2.25134 9.019 2.3903C9.23664 2.52884 9.36745 2.71924 9.41143 2.96149C9.45541 3.20375 9.39987 3.42797 9.24482 3.63418C9.09209 3.83995 8.88412 3.96674 8.6209 4.01452ZM12.3326 3.91816L13.4172 5.43923L13.9398 3.62638L15.8546 3.27878L14.9022 6.22353L16.8988 8.63292L14.998 8.97798L13.78 7.43782L13.2091 9.30275L11.2804 9.65289L12.3166 6.69292L10.4039 4.2683L12.3326 3.91816ZM19.9214 8.18524C19.3484 8.28927 18.8347 8.26944 18.3803 8.12575C17.9278 7.97931 17.5524 7.72024 17.2539 7.34854C16.9573 6.97409 16.7566 6.49803 16.6517 5.92035C16.5511 5.36596 16.5749 4.86116 16.7233 4.40594C16.8716 3.95072 17.1287 3.5708 17.4945 3.26619C17.8602 2.96159 18.3203 2.75896 18.8747 2.65832C19.28 2.58474 19.6583 2.58103 20.0096 2.64719C20.3608 2.71334 20.6747 2.84524 20.9512 3.04288C21.2273 3.23818 21.4591 3.49446 21.6466 3.81171C21.8341 4.12896 21.9666 4.50072 22.044 4.92699L22.1252 5.37423L17.3314 6.2445L17.1385 5.18232L20.1574 4.63428C20.1271 4.48096 20.063 4.35305 19.965 4.25054C19.8689 4.14527 19.7509 4.07166 19.6109 4.02969C19.4729 3.98498 19.3235 3.97721 19.1627 4.00639C19.0067 4.03472 18.8696 4.0945 18.7514 4.18573C18.6328 4.27464 18.5444 4.38451 18.4864 4.51536C18.4307 4.64578 18.4146 4.78944 18.4383 4.94636L18.6464 6.0924C18.6777 6.26477 18.7417 6.41195 18.8384 6.53395C18.9351 6.65594 19.058 6.74311 19.2071 6.79545C19.3562 6.84779 19.5262 6.85662 19.7172 6.82195C19.85 6.79784 19.9677 6.75722 20.0704 6.70007C20.1755 6.64251 20.2612 6.57159 20.3278 6.48734C20.3938 6.40075 20.4364 6.30399 20.4555 6.19706L22.2165 5.87737C22.2236 6.26106 22.1391 6.61085 21.9631 6.92673C21.7866 7.24028 21.5258 7.50659 21.1806 7.72566C20.8373 7.94198 20.4175 8.09517 19.9214 8.18524ZM23.9478 -0.0383772L25.2469 7.11739L23.3182 7.46753L22.0191 0.311763L23.9478 -0.0383772ZM30.478 2.4286L28.7031 2.75083C28.6739 2.64305 28.6183 2.55569 28.5364 2.48875C28.4544 2.42182 28.3561 2.37711 28.2413 2.35463C28.1285 2.32941 28.008 2.32842 27.8799 2.35168C27.7145 2.3817 27.5779 2.43778 27.4701 2.51991C27.3623 2.60204 27.3197 2.6988 27.3423 2.81018C27.3544 2.8898 27.4015 2.95705 27.4836 3.01191C27.5681 3.06635 27.7162 3.0936 27.928 3.09366L29.0536 3.09142C29.6215 3.09178 30.061 3.18645 30.372 3.37541C30.6849 3.56162 30.8785 3.85251 30.9527 4.24808C31.0197 4.63051 30.9658 4.98317 30.7911 5.30604C30.6182 5.62616 30.3512 5.89839 29.9901 6.12275C29.6309 6.34436 29.2033 6.50019 28.7071 6.59027C27.8872 6.73912 27.215 6.68791 26.6906 6.43663C26.1685 6.18493 25.8307 5.78909 25.6773 5.24908L27.5921 4.90148C27.6486 5.06687 27.7563 5.18326 27.9153 5.25064C28.0762 5.31526 28.2662 5.3277 28.4851 5.28795C28.6622 5.25581 28.8022 5.1991 28.9054 5.11782C29.0109 5.03611 29.0546 4.93914 29.0366 4.82691C29.0157 4.72484 28.9497 4.65262 28.8385 4.61024C28.7297 4.56744 28.5671 4.54643 28.3506 4.54722L27.3698 4.55204C26.8051 4.55591 26.3621 4.44865 26.041 4.23025C25.7198 4.01185 25.5221 3.69163 25.4479 3.26959C25.3779 2.89732 25.4185 2.56393 25.5695 2.26943C25.7225 1.97218 25.9719 1.72238 26.3177 1.52004C26.6655 1.31495 27.0944 1.1661 27.6045 1.07349C28.3802 0.932673 29.0208 0.982393 29.5264 1.22265C30.0343 1.46249 30.3515 1.86447 30.478 2.4286Z" fill="#FF9960"/>
<path d="M7.38519 31.9891L5.94059 24.8613L9.01724 24.2377C9.54626 24.1305 10.0287 24.133 10.4645 24.2452C10.9003 24.3573 11.265 24.5721 11.5588 24.8893C11.8526 25.2066 12.0508 25.6182 12.1533 26.124C12.2567 26.6344 12.2303 27.0879 12.0739 27.4843C11.9198 27.8803 11.6567 28.209 11.2846 28.4704C10.9147 28.7314 10.4583 28.9169 9.91541 29.0269L8.07777 29.3994L7.77305 27.8958L9.22088 27.6024C9.44827 27.5563 9.63637 27.4892 9.78518 27.4011C9.93584 27.3101 10.0414 27.1933 10.1019 27.0506C10.1646 26.9075 10.1756 26.735 10.1346 26.5331C10.0933 26.3289 10.0156 26.172 9.90153 26.0622C9.78934 25.9497 9.64593 25.8797 9.47129 25.8523C9.29849 25.8221 9.0984 25.83 8.87102 25.8761L8.18886 26.0144L9.32028 31.5969L7.38519 31.9891ZM10.8986 27.8711L13.3436 30.7815L11.2415 31.2075L8.83821 28.2887L10.8986 27.8711ZM13.9318 30.6623L12.4872 23.5345L17.6242 22.4933L17.9402 24.0526L14.7383 24.7015L14.9866 25.9266L17.924 25.3313L18.24 26.8905L15.3026 27.4858L15.5509 28.7109L18.7389 28.0648L19.0549 29.624L13.9318 30.6623ZM18.5839 22.2988L20.9923 21.8107L23.4672 25.5122L23.5508 25.4953L24.3892 21.1223L26.7976 20.6342L28.2422 27.762L26.3489 28.1457L25.5137 24.0249L25.458 24.0362L24.6949 28.4229L23.5533 28.6543L21.1367 24.883L21.0811 24.8943L21.9219 29.0429L20.0285 29.4266L18.5839 22.2988Z" fill="#60B2FF"/>
</g>
<defs>
<clipPath id="clip0_54_9">
<rect width="32" height="32" fill="white"/>
</clipPath>
</defs>
</svg>
